<?xml version="1.0" encoding="UTF-8"?>
<svg xmlns="http://www.w3.org/2000/svg" version="1.1" viewBox="0 0 1080 601.25">
  <defs>
    <style>
      .cls-1, .cls-2 {
        fill: #1b2737;
      }

      .cls-2 {
        fill-rule: evenodd;
      }
    </style>
  </defs>
  <!-- Generator: Adobe Illustrator 28.7.1, SVG Export Plug-In . SVG Version: 1.2.0 Build 142)  -->
  <g>
    <g id="Capa_1">
      <g>
        <path class="cls-1" d="M540,577.99c-213.62,0-396.3-129.65-486.18-206.93-21.12-18.17-33.23-43.85-33.23-70.44s12.11-52.27,33.22-70.43C143.7,152.91,326.38,23.26,540,23.26s396.3,129.65,486.18,206.93h0c21.11,18.17,33.22,43.85,33.22,70.44s-12.11,52.26-33.22,70.43c-89.89,77.29-272.56,206.94-486.18,206.94ZM540,84.63c-193.82,0-362.73,120.35-446.16,192.09-7.65,6.58-11.87,15.08-11.87,23.9s4.22,17.32,11.88,23.91c83.43,71.73,252.34,192.08,446.15,192.08s362.73-120.35,446.16-192.09c7.65-6.58,11.87-15.08,11.87-23.9s-4.22-17.32-11.88-23.91c-83.43-71.73-252.33-192.08-446.16-192.08Z"/>
        <path class="cls-2" d="M678.55,160.7c-35.47-35.44-84.45-57.37-138.55-57.37s-103.08,21.93-138.52,57.37c-35.47,35.47-57.39,84.45-57.39,138.55s21.93,103.08,57.39,138.52c35.44,35.47,84.42,57.39,138.52,57.39s103.08-21.93,138.55-57.39c35.44-35.44,57.37-84.42,57.37-138.52s-21.93-103.08-57.37-138.55ZM587.45,346.7c-12.14,12.14-28.92,19.65-47.45,19.65s-35.3-7.51-47.45-19.65c-12.14-12.15-19.65-28.92-19.65-47.45s7.51-35.31,19.65-47.45c12.15-12.15,28.92-19.65,47.45-19.65s35.31,7.5,47.45,19.65c12.15,12.14,19.65,28.92,19.65,47.45s-7.5,35.3-19.65,47.45Z"/>
      </g>
    </g>
  </g>
</svg>